<svg xmlns="http://www.w3.org/2000/svg" xmlns:svg="http://www.w3.org/2000/svg" xmlns:xlink="http://www.w3.org/1999/xlink" id="svg32" x="0" y="0" version="1.1" viewBox="0 0 256 256" xml:space="preserve" style="enable-background:new 0 0 256 256"><style type="text/css">.st0{fill:#00ef8b}.st1{fill:#fff}.st2{fill:#16ff99}</style><g id="Layer_2_1_"><g id="Layer_1-2"><g id="g43" transform="scale(2.56)"><circle id="circle20" cx="50" cy="50" r="50" class="st0"/><rect id="rect22" width="14.1" height="14.1" x="57.8" y="42.2" class="st1"/><path id="path24" d="M43.7,61.6c0,2.9-2.4,5.3-5.3,5.3s-5.3-2.4-5.3-5.3c0-2.9,2.4-5.3,5.3-5.3c0,0,0,0,0,0h5.3V42.2 h-5.3C27.7,42.2,19,50.9,19,61.6S27.7,81,38.4,81s19.4-8.7,19.4-19.4l0,0v-5.3H43.7V61.6z" class="st1"/><path id="path26" d="M63.1,35.1H79V21H63.1c-10.7,0-19.4,8.7-19.4,19.4v1.8h14.1v-1.8C57.8,37.5,60.2,35.1,63.1,35.1 z" class="st1"/><polygon id="polygon28" points="57.8 42.2 57.8 42.2 43.7 42.2 43.7 56.3 57.8 56.3" class="st2"/></g></g></g></svg>