<svg xmlns="http://www.w3.org/2000/svg" xmlns:xlink="http://www.w3.org/1999/xlink" id="Laag_1" x="0" y="0" version="1.1" viewBox="0 0 102.6 79.1" xml:space="preserve" style="enable-background:new 0 0 102.6 79.1"><style type="text/css">.st0{fill:url(#_Pad__1_)}.st1{fill:#4971fa}.st2{fill:url(#_Pad_3_1_)}</style><title>dcr</title><g id="Laag_3"><g id="Layer_1-2"><linearGradient id="_Pad__1_" x1="-7558.051" x2="-7500.722" y1="912.335" y2="912.335" gradientTransform="matrix(1 0 0 1 7603.2002 -872.83)" gradientUnits="userSpaceOnUse"><stop offset="0" style="stop-color:#62d0c9"/><stop offset="1" style="stop-color:#7de2ac"/></linearGradient><path id="_Pad_" d="M45.1,49.1h25.3c9.4,0,17.1-7.6,17.1-17.1S79.9,15,70.5,15h-8.1L45.1,0h25.3 c17.7-0.1,32.1,14.2,32.1,31.9c0.1,13.1-7.9,24.9-20.1,29.8l20,17.3H79.6L45.1,49.1z" class="st0"/><path id="_Pad_2" d="M57.5,30H32.2c-9.4,0-17.1,7.6-17.1,17.1s7.6,17.1,17.1,17.1h8.1l17.2,15H32.2 C14.5,79.2,0.1,64.9,0,47.3c-0.1-13.2,7.9-25,20.1-29.9L0.1,0H23L57.5,30z" class="st1"/><linearGradient id="_Pad_3_1_" x1="-7603.021" x2="-7545.691" y1="912.381" y2="912.381" gradientTransform="matrix(1 0 0 1 7603.2002 -872.83)" gradientUnits="userSpaceOnUse"><stop offset="0" style="stop-color:#3268fb"/><stop offset="1" style="stop-color:#4795fa"/></linearGradient><path id="_Pad_3" d="M57.5,30H32.2c-9.4,0-17.1,7.6-17.1,17.1s7.6,17.1,17.1,17.1h8.1l17.2,15H32.2 C14.5,79.2,0.1,64.9,0,47.3c-0.1-13.2,7.9-25,20.1-29.9L0.1,0H23L57.5,30z" class="st2"/></g></g></svg>