<svg xmlns="http://www.w3.org/2000/svg" xmlns:xlink="http://www.w3.org/1999/xlink" id="Layer_1" x="0" y="0" version="1.1" viewBox="0 0 472.4 168" xml:space="preserve" style="enable-background:new 0 0 472.4 168"><style type="text/css">.st0{fill:#2d1680}.st1,.st2{opacity:.9329;fill:#ef88aa;stroke:#ef88aa;stroke-width:3;stroke-dasharray:229.2358,245.7249;enable-background:new}.st2{stroke-width:5;stroke-dasharray:220.3232,236.1712}</style><path d="M0,0h72c42,0,76,34,76,76l0,0H0V0z" class="st0"/><path d="M163,0h72c42,0,76,34,76,76l0,0H163V0z" class="st0"/><path d="M0,168h72c42,0,76-34,76-76l0,0H0V168z" class="st0"/><path d="M163,168h72c42,0,76-34,76-76l0,0H163V168z" class="st0"/><path d="M305,0h53.3L472,168h-56.3L305,0z" class="st0"/><path d="M424.5,66l-44-64.5h89L424.5,66z" class="st1"/><path d="M350,103l-43.5,62.5h85L350,103z" class="st2"/></svg>