<svg xmlns="http://www.w3.org/2000/svg" xmlns:xlink="http://www.w3.org/1999/xlink" id="Layer_1" x="0" y="0" enable-background="new 0 0 64 64" version="1.1" viewBox="0 0 64 64" xml:space="preserve"><g><circle cx="32" cy="32" r="32" fill="#1C1E1F"/><linearGradient id="SVGID_1_" x1="1.411" x2="62.589" y1="32" y2="32" gradientUnits="userSpaceOnUse"><stop offset="0" style="stop-color:#fed83c"/><stop offset=".446" style="stop-color:#d87e2c"/><stop offset=".472" style="stop-color:#d87f2c"/><stop offset=".775" style="stop-color:#db8b29"/><stop offset="1" style="stop-color:#dc8f29"/></linearGradient><path fill="url(#SVGID_1_)" d="M32,1.4C15.1,1.4,1.4,15.1,1.4,32c0,16.9,13.7,30.6,30.6,30.6c16.9,0,30.6-13.7,30.6-30.6 C62.6,15.1,48.9,1.4,32,1.4z M32,61.2C15.9,61.2,2.8,48.1,2.8,32S15.9,2.8,32,2.8S61.2,15.9,61.2,32S48.1,61.2,32,61.2z"/><linearGradient id="SVGID_2_" x1="15.175" x2="45.838" y1="28.838" y2="30.983" gradientUnits="userSpaceOnUse"><stop offset="0" style="stop-color:#fed83c"/><stop offset=".073" style="stop-color:#f1bc37"/><stop offset=".164" style="stop-color:#e59f32"/><stop offset=".25" style="stop-color:#de8c2e"/><stop offset=".327" style="stop-color:#d9812c"/><stop offset=".387" style="stop-color:#d87e2c"/><stop offset=".488" style="stop-color:#e19c2c"/><stop offset=".615" style="stop-color:#ecc22a"/><stop offset=".677" style="stop-color:#f1d028"/><stop offset=".717" style="stop-color:#f2d235"/><stop offset=".785" style="stop-color:#f3d852"/><stop offset=".872" style="stop-color:#f6e27c"/><stop offset=".975" style="stop-color:#faf1ad"/><stop offset="1" style="stop-color:#fbf6bb"/></linearGradient><path fill="url(#SVGID_2_)" d="M50,13.1h-7.5l-8.1,11l-8-16.4L11.7,37.8l11.7,0l-9.5,12.9h7.6L33.1,35l5,10.2h6.6l-7.4-15.1 L50,13.1z M27.4,32.5h-6.5l5.5-11.2l3.7,7.4L27.4,32.5z"/><linearGradient id="SVGID_3_" x1="19.473" x2="28.133" y1="28.783" y2="25.459" gradientUnits="userSpaceOnUse"><stop offset="0" style="stop-color:#c24f19"/><stop offset=".35" style="stop-color:#c25219"/><stop offset=".555" style="stop-color:#c5591b"/><stop offset=".724" style="stop-color:#cb661e"/><stop offset=".872" style="stop-color:#d27822"/><stop offset="1" style="stop-color:#dc8f29"/></linearGradient><polygon fill="url(#SVGID_3_)" points="22.3 32.5 27.1 22.7 26.4 21.3 20.9 32.5"/><linearGradient id="SVGID_4_" x1="15.157" x2="19.978" y1="40.695" y2="34.949" gradientUnits="userSpaceOnUse"><stop offset="0" style="stop-color:#dc8f29"/><stop offset=".234" style="stop-color:#d27722"/><stop offset=".518" style="stop-color:#c8611d"/><stop offset=".781" style="stop-color:#c3541a"/><stop offset="1" style="stop-color:#c24f19"/></linearGradient><polygon fill="url(#SVGID_4_)" points="11.7 37.8 12.8 38.5 22.9 38.5 23.4 37.8"/><linearGradient id="SVGID_5_" x1="13.923" x2="33.696" y1="43.174" y2="43.174" gradientUnits="userSpaceOnUse"><stop offset="0" style="stop-color:#a0400d"/><stop offset=".406" style="stop-color:#a2410e"/><stop offset=".644" style="stop-color:#a84410"/><stop offset=".839" style="stop-color:#b34914"/><stop offset="1" style="stop-color:#c24f19"/></linearGradient><polygon fill="url(#SVGID_5_)" points="13.9 50.7 15 51.3 22.5 51.3 33.7 36.2 33.1 35 21.5 50.7"/><linearGradient id="SVGID_6_" x1="40.807" x2="47.67" y1="16.767" y2="39.642" gradientUnits="userSpaceOnUse"><stop offset="0" style="stop-color:#fbf6bb"/><stop offset=".002" style="stop-color:#fbf5b9"/><stop offset=".043" style="stop-color:#fce792"/><stop offset=".086" style="stop-color:#fcdc72"/><stop offset=".131" style="stop-color:#fcd453"/><stop offset=".177" style="stop-color:#fcce39"/><stop offset=".226" style="stop-color:#fcc923"/><stop offset=".279" style="stop-color:#fbc714"/><stop offset=".344" style="stop-color:#fbc60f"/><stop offset=".465" style="stop-color:#fabc14"/><stop offset=".69" style="stop-color:#f6a31d"/><stop offset=".994" style="stop-color:#f17b22"/><stop offset="1" style="stop-color:#f07a22"/></linearGradient><polygon fill="url(#SVGID_6_)" points="38.2 45.2 39.1 46 45.9 46 38.5 30.8 51.1 13.7 50 13.1 37.4 30.2 44.8 45.2"/></g></svg>