<svg xmlns="http://www.w3.org/2000/svg" xmlns:xlink="http://www.w3.org/1999/xlink" id="Layer_1" x="0" y="0" version="1.1" viewBox="0 0 100 100" xml:space="preserve" style="enable-background:new 0 0 100 100"><style type="text/css">.st0{filter:url(#Adobe_OpacityMaskFilter)}.st1,.st2{fill-rule:evenodd;clip-rule:evenodd;fill:#fff}.st2{mask:url(#mask-2_1_);fill:#29b2ff}.st3{fill:none;stroke:#fff;stroke-width:1.4925}</style><title>A9583670-E57C-4A05-93ED-98761EAFECA4@3x</title><desc>Created with sketchtool.</desc><g id="Page-1"><g id="Desktop_AlphaLandingpage" transform="translate(-144.000000, -145.000000)"><g id="Alpha_Logo_02" transform="translate(144.000000, 145.000000)"><g id="Group-3"><defs><filter id="Adobe_OpacityMaskFilter" width="100" height="100" x="0" y="0" filterUnits="userSpaceOnUse"><feColorMatrix type="matrix" values="1 0 0 0 0 0 1 0 0 0 0 0 1 0 0 0 0 0 1 0"/></filter></defs><mask id="mask-2_1_" width="100" height="100" x="0" y="0" maskUnits="userSpaceOnUse"><g class="st0"><polygon id="path-1_1_" points="0 0 100 0 100 100 0 100" class="st1"/></g></mask><path id="Fill-1" d="M50,0C22.4,0,0,22.4,0,50s22.4,50,50,50s50-22.4,50-50S77.6,0,50,0" class="st2"/></g><polygon id="Fill-4" points="35.7 34.6 12.7 65.2 17.4 65.2 22.4 58.5 38.4 58.5 38.4 54.7 25.2 54.7 40.3 34.6" class="st1"/><polygon id="Fill-6" points="87.3 65.2 64.3 34.6 59.7 34.6 74.8 54.7 61.6 54.7 61.6 58.5 77.6 58.5 82.6 65.2" class="st1"/><polygon id="Fill-8" points="48.1 65.2 51.9 65.2 51.9 17.9 48.1 17.9" class="st1"/><polygon id="Fill-15" points="22 57.7 37.7 57.7 37.7 55.5 22 55.5" class="st1"/><polygon id="Stroke-16" points="22 57.7 37.7 57.7 37.7 55.5 22 55.5" class="st3"/><polygon id="Fill-17" points="62.3 57.7 78 57.7 78 55.5 62.3 55.5" class="st1"/><polygon id="Stroke-18" points="62.3 57.7 78 57.7 78 55.5 62.3 55.5" class="st3"/></g></g></g></svg>