<svg xmlns="http://www.w3.org/2000/svg" xmlns:xlink="http://www.w3.org/1999/xlink" style="enable-background:new 0 0 24.7 24.8" id="Layer_1" x="0" y="0" version="1.1" viewBox="0 0 24.7 24.8" xml:space="preserve"><style type="text/css">.st0{fill:url(#SVGID_1_)}.st0,.st1,.st2,.st3{fill-rule:evenodd;clip-rule:evenodd}.st1{fill:url(#SVGID_2_)}.st2{fill:url(#SVGID_3_)}.st3{fill:url(#SVGID_4_)}.st4{fill:#1d2667}</style><g transform="translate(4.087 3.1)"><linearGradient id="SVGID_1_" x1="-793.078" x2="-793.385" y1="410.044" y2="409.671" gradientTransform="matrix(5.925 0 0 -4.867 4715.603 2009.5625)" gradientUnits="userSpaceOnUse"><stop style="stop-color:#fff;stop-opacity:0" offset="0"/><stop style="stop-color:#000;stop-opacity:.1" offset="1"/></linearGradient><path d="M13,13.3l4.7,4l0,0l0-0.1c0.4-0.5,0.8-1.1,1.2-1.7l0,0l-5.3-3.1C13.4,12.7,13.2,13,13,13.3z" class="st0"/><linearGradient id="SVGID_2_" x1="-807.454" x2="-807.631" y1="395.106" y2="394.771" gradientTransform="matrix(6.51 0 0 -4.232 5274.2861 1682.7869)" gradientUnits="userSpaceOnUse"><stop style="stop-color:#fff;stop-opacity:0" offset="0"/><stop style="stop-color:#000;stop-opacity:.1" offset="1"/></linearGradient><path d="M14.4,9.3h6.1l0,0.1c0,0.6-0.1,1.2-0.2,1.8l0,0.2l0,0.2c-0.1,0.6-0.3,1.2-0.5,1.8l0,0.1l-5.8-2.1 C14.3,10.8,14.4,10.1,14.4,9.3L14.4,9.3z" class="st1"/><linearGradient id="SVGID_3_" x1="-824.856" x2="-824.512" y1="439.147" y2="438.574" gradientTransform="matrix(7.383 0 0 -6.886 6105.3701 3027.7524)" gradientUnits="userSpaceOnUse"><stop style="stop-color:#fff;stop-opacity:0" offset="0"/><stop style="stop-color:#000;stop-opacity:.1" offset="1"/></linearGradient><path d="M19,3.1c0.3,0.6,0.6,1.2,0.8,1.8l0.1,0.1l0,0.1c0.2,0.6,0.4,1.2,0.5,1.8l0,0.1l-6,1.1 c-0.2-1.1-0.6-2.1-1.3-2.9l4.7-4l0,0.1C18.2,1.9,18.6,2.5,19,3.1L19,3.1L19,3.1L19,3.1z" class="st2"/><linearGradient id="SVGID_4_" x1="-833.283" x2="-832.424" y1="446.1" y2="445.471" gradientTransform="matrix(7.881 0 0 -7.625 6575.3413 3400.0759)" gradientUnits="userSpaceOnUse"><stop style="stop-color:#fff;stop-opacity:0" offset="0"/><stop style="stop-color:#000;stop-opacity:.1" offset="1"/></linearGradient><path d="M9.4,3.2C9,3.1,8.7,3.1,8.3,3.1v-6.2C9-3.1,9.7-3,10.4-2.9l0,0l0,0c0.7,0.1,1.3,0.3,2,0.5l0,0l0,0 c0.6,0.2,1.3,0.5,1.9,0.9l0,0v0l0,0c0.6,0.3,1.1,0.7,1.7,1.2l0.1,0l-3.9,4.7c-0.5-0.5-1.2-0.8-1.8-1.1C10.1,3.3,9.7,3.2,9.4,3.2 L9.4,3.2z" class="st3"/><g><path id="e" d="M8.3-3.1v6.2c-3.4,0-6.2,2.8-6.2,6.2s2.8,6.2,6.2,6.2c1.8,0,3.6-0.8,4.7-2.2l4.7,4 c-2.3,2.8-5.8,4.4-9.4,4.4c-6.8,0-12.3-5.5-12.3-12.4S1.4-3.1,8.3-3.1z M14.1,11.4l5.8,2.1c-0.2,0.7-0.6,1.3-0.9,2l-5.3-3.1 C13.8,12.1,14,11.8,14.1,11.4z M20.4,7.1c0.1,0.7,0.2,1.4,0.2,2.2h-6.1c0-0.4,0-0.7-0.1-1.1L20.4,7.1z M16.2-0.2 c0.5,0.5,1.1,1,1.5,1.5L13,5.3c-0.2-0.3-0.5-0.5-0.8-0.8L16.2-0.2z" class="st4"/></g></g></svg>