<svg xmlns="http://www.w3.org/2000/svg" xmlns:xlink="http://www.w3.org/1999/xlink" id="Layer_1" x="0" y="0" version="1.1" viewBox="0 0 1000 1000" xml:space="preserve" style="enable-background:new 0 0 1000 1000"><style type="text/css">.st0{fill:#1e0b49}.st1{fill:#1e90ff}.st2{fill:url(#SVGID_2_)}.st3{fill:url(#SVGID_3_)}.st4{fill:url(#SVGID_4_)}.st5{fill:indigo}.st6{fill:#8b008b}</style><g><g><g><g><path id="SVGID_1_" d="M500,0c276.1,0,500,223.9,500,500s-223.9,500-500,500S0,776.1,0,500S223.9,0,500,0L500,0z" class="st0"/></g></g></g></g><g id="Layer_2_1_"><g id="Layer_1-2"><path d="M324.6,400c22.1-37.6,57.5-59.9,88.6-59.3l12.6-21.3c21.7-36.9,14.2-81.9-16.8-100.1s-73.9-2.8-95.7,33.9 l-12.5,21.3c15.6,26.9,13.2,68.5-8.9,106.3s-57.5,59.9-88.6,59.3l-12.6,21.3c-21.7,36.9-14.2,81.9,16.8,100.1 c30.9,18.2,73.9,2.9,95.7-33.9l12.5-21.3C300.1,479.4,302.5,437.6,324.6,400z" class="st1"/><linearGradient id="SVGID_2_" x1="281.243" x2="336.862" y1="440.084" y2="344.911" gradientTransform="matrix(1 0 0 -1 0 1000)" gradientUnits="userSpaceOnUse"><stop offset=".21" style="stop-color:#1e90ff"/><stop offset="1" style="stop-color:indigo"/></linearGradient><path d="M292,615.9c-22.1-37.6-57.5-59.9-88.6-59.3l-12.6-21.3c-21.7-36.9-14.2-81.9,16.8-100.1s73.9-3,95.7,33.9 l12.5,21.3c-15.6,26.9-13.2,68.5,8.9,106.3c22.2,37.8,57.5,59.9,88.6,59.3l12.6,21.3c21.7,36.9,14.2,81.9-16.8,100.1 c-30.9,18.2-73.9,3-95.7-33.9l-12.5-21.3C316.4,695.3,314,653.5,292,615.9z" class="st2"/><linearGradient id="SVGID_3_" x1="-88.404" x2="-88.328" y1="373.572" y2="280.456" gradientTransform="matrix(-0.8 0.47 -0.56 -0.96 671.4801 960.0399)" gradientUnits="userSpaceOnUse"><stop offset="0" style="stop-color:#8b008b"/><stop offset="1" style="stop-color:indigo"/></linearGradient><path d="M543.7,615.9c-22.1-37.6-57.5-59.9-88.6-59.3l-12.6-21.3c-21.7-36.9-14.2-81.9,16.8-100.1s73.9-3,95.6,33.9 l12.6,21.3c-15.6,26.9-13.2,68.5,8.9,106.3c22.2,37.8,57.5,59.9,88.6,59.3l12.6,21.3c21.7,36.9,14.2,81.9-16.8,100.1 c-30.9,18.2-73.9,3-95.7-33.9l-12.5-21.3C568.3,695.3,566,653.5,543.7,615.9z" class="st3"/><linearGradient id="SVGID_4_" x1="847.648" x2="838.74" y1="823.159" y2="730.995" gradientTransform="matrix(0.8 0.47 0.56 -0.96 -425.21 960.0399)" gradientUnits="userSpaceOnUse"><stop offset="0" style="stop-color:#8b008b"/><stop offset="1" style="stop-color:indigo"/></linearGradient><path d="M701.1,619.6c22.1-37.5,57.5-59.9,88.6-59.3l12.6-21.3c21.7-36.9,14.2-81.9-16.8-100.1s-73.9-2.9-95.7,33.9 l-12.5,21.3c15.6,26.9,13.2,68.5-8.9,106.3c-22.2,37.8-57.5,59.9-88.6,59.3L567.2,681c-21.7,36.9-14.2,81.9,16.8,100.1 s73.9,2.9,95.7-33.9l12.5-21.3C676.4,698.9,679,657.1,701.1,619.6z" class="st4"/><path d="M371.9,205c-41.9,0-75.8,34.5-74.8,76.6c0.9,39.7,33.3,72,73,73c42.1,1,76.6-32.9,76.6-74.8l0,0 C446.7,238.5,413.2,205,371.9,205z" class="st1"/><path d="M371.9,644c-41.9,0-75.7,34.5-74.7,76.7c1,40.5,34.6,73.1,75.1,72.9c41.1-0.2,74.4-33.5,74.5-74.7 C446.8,677.6,413.3,644,371.9,644z" class="st5"/><path d="M622.6,205c-41.9,0-75.8,34.5-74.8,76.6c0.9,39.7,33.3,72,73,73c42.1,1,76.6-32.9,76.6-74.8l0,0 C697.4,238.5,663.9,205,622.6,205z" class="st1"/><path d="M622.6,644c-41.9,0-75.8,34.5-74.8,76.6c0.9,40.5,34.6,73.2,75.1,73c41.1-0.2,74.4-33.5,74.5-74.7 C697.4,677.6,664,644.1,622.6,644z" class="st5"/><path d="M495.5,424.5c-41.9,0-75.8,34.5-74.8,76.6c0.9,39.7,33.3,72,73,73c42.1,1,76.6-32.9,76.6-74.8l0,0 C570.3,458,536.8,424.5,495.5,424.5z" class="st6"/><path d="M749,424.5c-41.9,0-75.8,34.4-74.8,76.6c0.9,39.7,33.3,72.1,72.9,73c42.1,1,76.6-32.8,76.6-74.7l0,0 C823.7,458,790.3,424.6,749,424.5z" class="st6"/><path d="M242,424.5c-41.9,0-75.8,34.5-74.8,76.6c0.9,39.7,33.3,72,73,73c42.1,1,76.6-32.9,76.6-74.8l0,0 C316.8,458,283.3,424.5,242,424.5z" class="st1"/></g></g></svg>