<svg xmlns="http://www.w3.org/2000/svg" xmlns:xlink="http://www.w3.org/1999/xlink" style="enable-background:new 0 0 1000 1000" id="Layer_1" x="0" y="0" version="1.1" viewBox="0 0 1000 1000" xml:space="preserve"><style type="text/css">.st0{fill:#263145}.st0,.st1,.st2,.st3{fill-rule:evenodd;clip-rule:evenodd}.st1{fill:#ccd9e2}.st2{fill:#aaa}.st3{fill:#5a5967}</style><g><g><g><path id="SVGID_1_" d="M500,0c276.1,0,500,223.9,500,500s-223.9,500-500,500S0,776.1,0,500S223.9,0,500,0L500,0z" class="st0"/></g></g><g><g><polygon id="SVGID_3_" points="530.7 177 460.8 177 172 680 685.3 680 686.8 680 650 620 276 620" class="st1"/></g></g><g><g><polygon id="SVGID_5_" points="785.3 739 821 678.5 529.7 177 275 620 345 620 530.7 296.5" class="st2"/></g></g><g><g><polygon id="SVGID_7_" points="172 680 207.7 739 785.3 739 530.7 295.1 495.5 357.1 684.4 680" class="st3"/></g></g></g></svg>