<svg xmlns="http://www.w3.org/2000/svg" xmlns:svg="http://www.w3.org/2000/svg" xmlns:xlink="http://www.w3.org/1999/xlink" id="svg22" x="0" y="0" version="1.1" viewBox="0 0 39.7 39.7" xml:space="preserve" style="enable-background:new 0 0 39.7 39.7"><style type="text/css">.st0,.st1{fill-rule:evenodd;clip-rule:evenodd;fill:url(#rect10_1_)}.st1{fill:#fff}</style><linearGradient id="rect10_1_" x1="39.655" x2="0" y1="2.345" y2="42" gradientTransform="matrix(1 0 0 -1 0 42)" gradientUnits="userSpaceOnUse"><stop offset="0" style="stop-color:#4b81eb"/><stop offset="1" style="stop-color:#6752f4"/></linearGradient><path id="rect10" d="M19.8,0L19.8,0c11,0,19.8,8.9,19.8,19.8l0,0c0,11-8.9,19.8-19.8,19.8l0,0C8.9,39.7,0,30.8,0,19.8	l0,0C0,8.9,8.9,0,19.8,0z" class="st0"/><path id="path12" d="M9,9.4h11.8c4.8,0,9.7,3.4,9.7,10.3S25.6,30,20.8,30h-8.7V18.9	h5.1V25h3.4c2.2,0,4.8-2.5,4.8-5.3c0-2.8-2.5-5.3-4.8-5.3h-5.6C12.5,14.4,10.5,12.7,9,9.4z" class="st1"/></svg>