<svg xmlns="http://www.w3.org/2000/svg" xmlns:xlink="http://www.w3.org/1999/xlink" id="Layer_1" x="0" y="0" version="1.1" viewBox="0 0 2474.3 2474.3" xml:space="preserve" style="enable-background:new 0 0 2474.3 2474.3"><style type="text/css">.st0{fill:#00ff24}</style><path d="M0,0h2474.3v2474.3H0V0z" class="st0"/><g><path d="M15074.2-2162v-4778.7h-3830.3H7413.6v-1430.2V-9798l1430.2-1430.2c784.6-784.6,1436.4-1427.1,1451.8-1427.1 c12.4,0,21.6,639.4,21.6,1420.9v1420.9h3814.9H17947v4781.7V-253l-1436.4,1436.4l-1436.4,1436.4L15074.2-2162z" transform="matrix(.1 0 0 -.1 0 801)"/><path d="M7413.6-1195.2v-1915.2h1930.6h1930.6v1915.2V720H9344.2H7413.6V-1195.2z" transform="matrix(.1 0 0 -.1 0 801)"/></g></svg>