<svg xmlns="http://www.w3.org/2000/svg" xmlns:xlink="http://www.w3.org/1999/xlink" style="enable-background:new 0 0 95.2 86.2" id="Layer_1" x="0" y="0" version="1.1" viewBox="0 0 95.2 86.2" xml:space="preserve"><style type="text/css">.st0{fill:#88c6de}.st1{fill:#6ca2cb}.st2{fill:#fff}.st3{fill:url(#SVGID_1_)}.st3,.st4,.st5,.st6,.st7,.st8,.st9{opacity:.5;enable-background:new}.st4{fill:url(#SVGID_2_)}.st5{fill:url(#SVGID_3_)}.st6{fill:url(#SVGID_4_)}.st7{fill:url(#SVGID_5_)}.st8{fill:url(#SVGID_6_)}.st9{fill:#fff}</style><path d="M78.9,0H16C7.2,0,0,7.4,0,16.6v55.2c0,4.8,5.7,7.1,8.8,3.5l0,0c3.8-4.4,10.4-4.3,14.1,0.1l4.9,5.7	c2,2.3,5.5,2.3,7.5,0l5.1-5.8c3.8-4.3,10.3-4.3,14.1,0l5.1,5.9c2,2.3,5.5,2.3,7.5,0l5.1-5.9c3.8-4.3,10.3-4.3,14.1,0l0.1,0.1	c3.1,3.6,8.8,1.3,8.8-3.5V16.6C94.9,7.4,87.8,0,78.9,0z" class="st0"/><path d="M78.9,3.3H16c-8.8,0-16,7.4-16,16.6v55.2c0,4.8,5.7,7.1,8.8,3.5l0,0c3.8-4.4,10.4-4.3,14.1,0.1l4.9,5.7	c2,2.3,5.5,2.3,7.5,0l5.1-5.8c3.8-4.3,10.3-4.3,14.1,0l5.1,5.9c2,2.3,5.5,2.3,7.5,0l5.1-5.9c3.8-4.3,10.3-4.3,14.1,0l0.1,0.1	c3.1,3.6,8.8,1.3,8.8-3.5V19.9C94.9,10.7,87.8,3.3,78.9,3.3z" class="st1"/><circle cx="29.4" cy="31.1" r="9.7" class="st2"/><circle cx="65.6" cy="31.1" r="9.7" class="st2"/><linearGradient id="SVGID_1_" x1="57.862" x2="73.247" y1="56.9" y2="56.9" gradientTransform="matrix(1 0 0 -1 0 88)" gradientUnits="userSpaceOnUse"><stop style="stop-color:#1eaacc" offset="0"/><stop style="stop-color:#0584b9" offset="1"/></linearGradient><circle cx="65.6" cy="31.1" r="7.7" class="st3"/><linearGradient id="SVGID_2_" x1="59.444" x2="71.665" y1="56.9" y2="56.9" gradientTransform="matrix(1 0 0 -1 0 88)" gradientUnits="userSpaceOnUse"><stop style="stop-color:#1eaacc" offset="0"/><stop style="stop-color:#0584b9" offset="1"/></linearGradient><circle cx="65.6" cy="31.1" r="6.1" class="st4"/><linearGradient id="SVGID_3_" x1="61.717" x2="69.392" y1="56.9" y2="56.9" gradientTransform="matrix(1 0 0 -1 0 88)" gradientUnits="userSpaceOnUse"><stop style="stop-color:#1eaacc" offset="0"/><stop style="stop-color:#0584b9" offset="1"/></linearGradient><circle cx="65.6" cy="31.1" r="3.8" class="st5"/><linearGradient id="SVGID_4_" x1="21.683" x2="37.067" y1="56.9" y2="56.9" gradientTransform="matrix(1 0 0 -1 0 88)" gradientUnits="userSpaceOnUse"><stop style="stop-color:#1eaacc" offset="0"/><stop style="stop-color:#0584b9" offset="1"/></linearGradient><circle cx="29.4" cy="31.1" r="7.7" class="st6"/><linearGradient id="SVGID_5_" x1="23.265" x2="35.486" y1="56.9" y2="56.9" gradientTransform="matrix(1 0 0 -1 0 88)" gradientUnits="userSpaceOnUse"><stop style="stop-color:#1eaacc" offset="0"/><stop style="stop-color:#0584b9" offset="1"/></linearGradient><circle cx="29.4" cy="31.1" r="6.1" class="st7"/><linearGradient id="SVGID_6_" x1="25.538" x2="33.212" y1="56.9" y2="56.9" gradientTransform="matrix(1 0 0 -1 0 88)" gradientUnits="userSpaceOnUse"><stop style="stop-color:#1eaacc" offset="0"/><stop style="stop-color:#0584b9" offset="1"/></linearGradient><circle cx="29.4" cy="31.1" r="3.8" class="st8"/><ellipse cx="34.2" cy="26" class="st9" rx="2.2" ry="2.2"/><ellipse cx="70.4" cy="26" class="st9" rx="2.2" ry="2.2"/></svg>