<svg xmlns="http://www.w3.org/2000/svg" xmlns:xlink="http://www.w3.org/1999/xlink" id="Layer_1_copy" x="0" y="0" version="1.1" viewBox="0 0 601.2 455.8" xml:space="preserve" style="enable-background:new 0 0 601.2 455.8"><style type="text/css">.st0{fill:url(#SVGID_1_)}.st1{fill:url(#SVGID_2_)}.st2{fill:url(#SVGID_3_)}.st3{fill:url(#SVGID_4_)}</style><g><linearGradient id="SVGID_1_" x1="-.908" x2="805.044" y1="226.477" y2="310.198" gradientTransform="matrix(1 0 0 -1 0 458.4)" gradientUnits="userSpaceOnUse"><stop offset="0" style="stop-color:#4400e2"/><stop offset=".041" style="stop-color:#7013c5"/><stop offset=".087" style="stop-color:#9a25aa"/><stop offset=".133" style="stop-color:#bc3494"/><stop offset=".18" style="stop-color:#d73f82"/><stop offset=".228" style="stop-color:#ea4876"/><stop offset=".278" style="stop-color:#f54c6e"/><stop offset=".33" style="stop-color:#f94e6c"/><stop offset="1" style="stop-color:#ffd402"/></linearGradient><path d="M37.9,0C16.9,0,0,17,0,37.9v189.4v81.5v109.1c0,20.9,16.9,37.9,37.9,37.9s37.9-17,37.9-37.9v-380 C75.7,17,58.8,0,37.9,0z" class="st0"/><linearGradient id="SVGID_2_" x1="4.701" x2="810.653" y1="172.482" y2="256.202" gradientTransform="matrix(1 0 0 -1 0 458.4)" gradientUnits="userSpaceOnUse"><stop offset="0" style="stop-color:#4400e2"/><stop offset=".041" style="stop-color:#7013c5"/><stop offset=".087" style="stop-color:#9a25aa"/><stop offset=".133" style="stop-color:#bc3494"/><stop offset=".18" style="stop-color:#d73f82"/><stop offset=".228" style="stop-color:#ea4876"/><stop offset=".278" style="stop-color:#f54c6e"/><stop offset=".33" style="stop-color:#f94e6c"/><stop offset="1" style="stop-color:#ffd402"/></linearGradient><path d="M563.3,0c-20.9,0-37.9,17-37.9,37.9v380c0,20.9,17,37.9,37.9,37.9c20.9,0,37.9-17,37.9-37.9v-380 C601.2,17,584.2,0,563.3,0z" class="st1"/><linearGradient id="SVGID_3_" x1=".962" x2="806.914" y1="208.477" y2="292.198" gradientTransform="matrix(1 0 0 -1 0 458.4)" gradientUnits="userSpaceOnUse"><stop offset="0" style="stop-color:#4400e2"/><stop offset=".041" style="stop-color:#7013c5"/><stop offset=".087" style="stop-color:#9a25aa"/><stop offset=".133" style="stop-color:#bc3494"/><stop offset=".18" style="stop-color:#d73f82"/><stop offset=".228" style="stop-color:#ea4876"/><stop offset=".278" style="stop-color:#f54c6e"/><stop offset=".33" style="stop-color:#f94e6c"/><stop offset="1" style="stop-color:#ffd402"/></linearGradient><path d="M213,79c-20.9,0-37.9,16.9-37.9,37.9v222c0,20.9,17,37.9,37.9,37.9s37.9-17,37.9-37.9v-222 C250.9,96,233.9,79,213,79z" class="st2"/><linearGradient id="SVGID_4_" x1="2.79" x2="808.741" y1="190.882" y2="274.603" gradientTransform="matrix(1 0 0 -1 0 458.4)" gradientUnits="userSpaceOnUse"><stop offset="0" style="stop-color:#4400e2"/><stop offset=".041" style="stop-color:#7013c5"/><stop offset=".087" style="stop-color:#9a25aa"/><stop offset=".133" style="stop-color:#bc3494"/><stop offset=".18" style="stop-color:#d73f82"/><stop offset=".228" style="stop-color:#ea4876"/><stop offset=".278" style="stop-color:#f54c6e"/><stop offset=".33" style="stop-color:#f94e6c"/><stop offset="1" style="stop-color:#ffd402"/></linearGradient><path d="M388.2,142.8c-20.9,0-37.9,17-37.9,37.9v93.7c0,20.9,17,37.9,37.9,37.9c20.9,0,37.9-17,37.9-37.9v-93.7 C426,159.7,409.1,142.8,388.2,142.8z" class="st3"/></g></svg>