<svg xmlns="http://www.w3.org/2000/svg" xmlns:xlink="http://www.w3.org/1999/xlink" id="Layer_1" x="0" y="0" version="1.1" viewBox="0 0 250 250" xml:space="preserve" style="enable-background:new 0 0 250 250"><style type="text/css">.st0{fill-rule:evenodd;clip-rule:evenodd;fill:url(#SVGID_1_)}</style><circle cx="125" cy="125" r="125"/><linearGradient id="SVGID_1_" x1="124.655" x2="124.655" y1="52.323" y2="189.503" gradientTransform="matrix(1 0 0 -1 0 252)" gradientUnits="userSpaceOnUse"><stop offset="0" style="stop-color:#ffe600"/><stop offset=".307" style="stop-color:#faad14"/><stop offset=".672" style="stop-color:#f7169c"/><stop offset="1" style="stop-color:#3435f5"/></linearGradient><path d="M137.6,193.1h-25.8C118.1,201.9,131.3,201.9,137.6,193.1z M142.3,185H107l-9.3-16.3h53.8L142.3,185z M93.1,160.5h63.1l9.3-16.3H83.9L93.1,160.5z M79.2,136L70,119.7h109.3l-9.3,16.3H79.2z M65.4,111.5H184l10.9-19.3H54.4L65.4,111.5z M49.9,84.1C45.7,73.8,53.2,62,64.7,62h119.8c11.6,0,19.1,11.8,14.8,22.1H49.9z" class="st0"/></svg>