<svg xmlns="http://www.w3.org/2000/svg" xmlns:xlink="http://www.w3.org/1999/xlink" id="aave" x="0" y="0" version="1.1" viewBox="0 0 500 500" xml:space="preserve" style="enable-background:new 0 0 500 500"><style type="text/css">.st0{fill:url(#SVGID_1_)}.st1{fill:#fff}</style><linearGradient id="SVGID_1_" x1="-597.347" x2="-598.108" y1="-400.693" y2="-400.053" gradientTransform="matrix(485 0 0 485 290148.125 194430.625)" gradientUnits="userSpaceOnUse"><stop offset="0" style="stop-color:#b6509e"/><stop offset="1" style="stop-color:#2ebac6"/></linearGradient><circle cx="250" cy="250" r="248" class="st0"/><path d="M358.5,348.8l-83.9-202.7c-4.7-10.5-11.8-15.6-21-15.6h-7.4c-9.3,0-16.3,5.1-21,15.6l-36.5,88.3h-27.6	c-8.2,0.1-15,6.7-15,15v0.2c0.1,8.2,6.8,15,15,15h14.8l-34.8,84.2c-0.6,1.9-1,3.8-1,5.8c0,4.7,1.5,8.4,4.1,11.3	c2.6,2.9,6.4,4.3,11.1,4.3c3.1-0.1,6.1-1,8.6-2.9c2.7-1.9,4.5-4.5,6-7.6l38.4-95.1h26.6c8.2-0.1,15-6.7,15-15v-0.4	c-0.1-8.2-6.8-15-15-15h-14.2l29.3-72.9l79.8,198.4c1.5,3.1,3.3,5.8,6,7.6c2.5,1.9,5.6,2.8,8.6,2.9c4.7,0,8.4-1.4,11.1-4.3	c2.7-2.9,4.1-6.6,4.1-11.3C359.6,352.6,359.3,350.6,358.5,348.8z" class="st1"/></svg>