<svg xmlns="http://www.w3.org/2000/svg" xmlns:xlink="http://www.w3.org/1999/xlink" id="Layer_1" x="0" y="0" version="1.1" viewBox="0 0 96 96" xml:space="preserve" style="enable-background:new 0 0 96 96"><style type="text/css">.st0{fill:#0e0e21}.st1{fill:#fff}.st2{fill:#2ae7a8}</style><circle cx="48" cy="48" r="48" class="st0"/><path d="M74.8,59.2l-5.7-9.7c-0.2-0.4-0.7-0.5-1-0.2l-3.7,2.4c-0.3,0.2-0.4,0.7-0.2,1l3.3,5.5c0.1,0.2,0,0.4-0.1,0.5	L48.2,71.1c-0.1,0.1-0.3,0.1-0.4,0l-19-12.4c-0.2-0.1-0.2-0.3-0.1-0.5l3.3-5.5c0.2-0.3,0.1-0.8-0.2-1l-3.7-2.4	c-0.4-0.2-0.8-0.1-1,0.2l-5.7,9.7c-0.4,0.7-0.2,1.6,0.5,2l25.5,16.6c0.5,0.3,1.1,0.3,1.6,0l25.5-16.6C75,60.7,75.2,59.8,74.8,59.2z" class="st1"/><path d="M30.9,44.1l3.7,2.4c0.4,0.2,0.8,0.1,1-0.2l12-20.4c0.1-0.2,0.5-0.2,0.6,0l12,20.4c0.2,0.4,0.7,0.5,1,0.2	l3.7-2.4c0.3-0.2,0.4-0.7,0.2-1L51,18.7c-0.3-0.5-0.7-0.7-1.3-0.7h-3.4c-0.5,0-1,0.3-1.3,0.7L30.7,43.1	C30.5,43.4,30.6,43.9,30.9,44.1z" class="st2"/></svg>