<svg xmlns="http://www.w3.org/2000/svg" xmlns:xlink="http://www.w3.org/1999/xlink" id="Layer_1" x="0" y="0" version="1.1" viewBox="0 0 2000 2210" xml:space="preserve" style="enable-background:new 0 0 2000 2210"><style type="text/css">.st0{opacity:.2;fill:#ff564f;enable-background:new}.st1{fill:#f08179}.st2{fill:#ff564f}</style><path d="M198.5,1841.3L321.6,2210l845-1105L321.6,0L192.5,360.7l561.3,744.1L198.5,1841.3z" class="st0"/><path d="M1999.7,2209.8h-401l-845.2-1105L1598.7,0h401l-833.3,1104.8L1999.7,2209.8z" class="st1"/><path d="M0,0h321.4v2209.8H0V0z" class="st2"/><g><path id="_x30_" d="M2000,2209.8h-401l-845.2-1105L1599,0h401l-833.3,1104.8L2000,2209.8z" class="st2"/></g><g><path id="_x30__1_" d="M2000,2209.8h-401l-845.2-1105L1599,0h401l-833.3,1104.8L2000,2209.8z" class="st2"/></g><g><path id="_x30__2_" d="M2000,2209.8h-401l-845.2-1105L1599,0h401l-833.3,1104.8L2000,2209.8z" class="st2"/></g><g><path id="_x30__3_" d="M2000,2209.8h-401l-845.2-1105L1599,0h401l-833.3,1104.8L2000,2209.8z" class="st2"/></g></svg>