<svg xmlns="http://www.w3.org/2000/svg" xmlns:xlink="http://www.w3.org/1999/xlink" id="Layer_1" x="0" y="0" version="1.1" viewBox="0 0 454 454" xml:space="preserve" style="enable-background:new 0 0 454 454"><style type="text/css">.st0{fill:none}.st1,.st2{fill-rule:evenodd;clip-rule:evenodd;fill:#fff}.st2{fill:url(#SVGID_1_)}.st3{fill:#fefefe}</style><g id="Layer_x0020_1"><rect width="540" height="540" x="-43" y="-43" class="st0"/><circle cx="227" cy="227" r="211.8" class="st1"/><linearGradient id="SVGID_1_" x1="10884.04" x2="15321.961" y1="-8321.276" y2="-4083.835" gradientTransform="matrix(7.200000e-02 0 0 -7.200000e-02 -716.416 -219.584)" gradientUnits="userSpaceOnUse"><stop offset="0" style="stop-color:#744196"/><stop offset="1" style="stop-color:#6fcde5"/></linearGradient><circle cx="227" cy="227" r="223.2" class="st2"/><path d="M223.8,276.8c-13.2,0-25.6-5.2-34.9-14.5c-9.4-9.4-14.5-21.7-14.5-35c0-13.2,5.2-25.6,14.5-34.9 c9.4-9.4,21.8-14.5,35-14.5s25.6,5.1,34.9,14.4c19.3,19.3,19.3,50.7,0,70C249.5,271.6,237,276.8,223.8,276.8z" class="st3"/><path d="M94.1,275.9c-13.2,0-25.6-5.1-35-14.5c-9.3-9.4-14.5-21.7-14.5-34.9c0-13.2,5.2-25.6,14.5-34.9 c4.1-4.2,9.4-7.6,14.8-10c28.5-12.7,49.9,9,83.6-25.7c36.5-37.5,5.7-68.4,34.1-96.7c9.4-9.4,21.8-14.5,35-14.5s25.6,5.2,34.9,14.5 c19.3,19.3,19.3,50.7,0,70c-28.4,28.2-61-2.9-98.4,35.6c-35.8,36.9-5.3,67.8-34.1,96.8C119.7,270.8,107.3,275.9,94.1,275.9z" class="st3"/><path d="M227.6,409.4c-13.2,0-25.6-5.2-35-14.5c-9.4-9.3-14.5-21.7-14.5-34.9s5.1-25.6,14.5-34.9 c4.1-4.1,9.4-7.6,14.8-10c28.5-12.7,49.9,9.1,83.6-25.6c36.5-37.5,5.7-68.5,34.1-96.8c9.4-9.4,21.7-14.5,35-14.5 c13.2,0,25.6,5.1,34.9,14.5c19.2,19.2,19.2,50.6,0,69.9c-28.4,28.2-61-2.8-98.4,35.6c-35.8,36.8-5.4,67.8-34.1,96.8 C253.1,404.2,240.8,409.4,227.6,409.4z" class="st3"/></g></svg>